<mxfile host="Electron" modified="2025-04-04T08:38:10.431Z" agent="Mozilla/5.0 (Windows NT 10.0; Win64; x64) AppleWebKit/537.36 (KHTML, like Gecko) draw.io/21.7.5 Chrome/114.0.5735.289 Electron/25.8.1 Safari/537.36" etag="WmCQz8xqLCZyhi7npB98" version="21.7.5" type="device">
  <diagram name="PÃ¡gina-1" id="c2puMWGzBOB7m6rcgWyE">
    <mxGraphModel dx="712" dy="827" grid="1" gridSize="10" guides="1" tooltips="1" connect="1" arrows="1" fold="1" page="1" pageScale="1" pageWidth="1169" pageHeight="827" math="0" shadow="0">
      <root>
        <mxCell id="0" />
        <mxCell id="1" parent="0" />
        <mxCell id="39Ilf-2KPH32Gcn3oSov-1" value="" style="shape=umlLifeline;perimeter=lifelinePerimeter;whiteSpace=wrap;html=1;container=1;dropTarget=0;collapsible=0;recursiveResize=0;outlineConnect=0;portConstraint=eastwest;newEdgeStyle={&quot;curved&quot;:0,&quot;rounded&quot;:0};participant=umlActor;" vertex="1" parent="1">
          <mxGeometry x="160" y="40" width="20" height="520" as="geometry" />
        </mxCell>
        <mxCell id="39Ilf-2KPH32Gcn3oSov-3" value="" style="html=1;points=[[0,0,0,0,5],[0,1,0,0,-5],[1,0,0,0,5],[1,1,0,0,-5]];perimeter=orthogonalPerimeter;outlineConnect=0;targetShapes=umlLifeline;portConstraint=eastwest;newEdgeStyle={&quot;curved&quot;:0,&quot;rounded&quot;:0};" vertex="1" parent="39Ilf-2KPH32Gcn3oSov-1">
          <mxGeometry x="5" y="80" width="10" height="80" as="geometry" />
        </mxCell>
        <mxCell id="39Ilf-2KPH32Gcn3oSov-7" value="" style="html=1;points=[[0,0,0,0,5],[0,1,0,0,-5],[1,0,0,0,5],[1,1,0,0,-5]];perimeter=orthogonalPerimeter;outlineConnect=0;targetShapes=umlLifeline;portConstraint=eastwest;newEdgeStyle={&quot;curved&quot;:0,&quot;rounded&quot;:0};" vertex="1" parent="39Ilf-2KPH32Gcn3oSov-1">
          <mxGeometry x="5" y="190" width="10" height="80" as="geometry" />
        </mxCell>
        <mxCell id="39Ilf-2KPH32Gcn3oSov-12" value="" style="html=1;points=[[0,0,0,0,5],[0,1,0,0,-5],[1,0,0,0,5],[1,1,0,0,-5]];perimeter=orthogonalPerimeter;outlineConnect=0;targetShapes=umlLifeline;portConstraint=eastwest;newEdgeStyle={&quot;curved&quot;:0,&quot;rounded&quot;:0};" vertex="1" parent="39Ilf-2KPH32Gcn3oSov-1">
          <mxGeometry x="5" y="320" width="10" height="80" as="geometry" />
        </mxCell>
        <mxCell id="39Ilf-2KPH32Gcn3oSov-23" value="" style="html=1;points=[[0,0,0,0,5],[0,1,0,0,-5],[1,0,0,0,5],[1,1,0,0,-5]];perimeter=orthogonalPerimeter;outlineConnect=0;targetShapes=umlLifeline;portConstraint=eastwest;newEdgeStyle={&quot;curved&quot;:0,&quot;rounded&quot;:0};" vertex="1" parent="39Ilf-2KPH32Gcn3oSov-1">
          <mxGeometry x="5" y="430" width="10" height="80" as="geometry" />
        </mxCell>
        <mxCell id="39Ilf-2KPH32Gcn3oSov-2" value=":Sistema" style="shape=umlLifeline;perimeter=lifelinePerimeter;whiteSpace=wrap;html=1;container=1;dropTarget=0;collapsible=0;recursiveResize=0;outlineConnect=0;portConstraint=eastwest;newEdgeStyle={&quot;curved&quot;:0,&quot;rounded&quot;:0};" vertex="1" parent="1">
          <mxGeometry x="430" y="40" width="100" height="520" as="geometry" />
        </mxCell>
        <mxCell id="39Ilf-2KPH32Gcn3oSov-4" value="" style="html=1;points=[[0,0,0,0,5],[0,1,0,0,-5],[1,0,0,0,5],[1,1,0,0,-5]];perimeter=orthogonalPerimeter;outlineConnect=0;targetShapes=umlLifeline;portConstraint=eastwest;newEdgeStyle={&quot;curved&quot;:0,&quot;rounded&quot;:0};" vertex="1" parent="39Ilf-2KPH32Gcn3oSov-2">
          <mxGeometry x="45" y="80" width="10" height="80" as="geometry" />
        </mxCell>
        <mxCell id="39Ilf-2KPH32Gcn3oSov-8" value="" style="html=1;points=[[0,0,0,0,5],[0,1,0,0,-5],[1,0,0,0,5],[1,1,0,0,-5]];perimeter=orthogonalPerimeter;outlineConnect=0;targetShapes=umlLifeline;portConstraint=eastwest;newEdgeStyle={&quot;curved&quot;:0,&quot;rounded&quot;:0};" vertex="1" parent="39Ilf-2KPH32Gcn3oSov-2">
          <mxGeometry x="45" y="190" width="10" height="80" as="geometry" />
        </mxCell>
        <mxCell id="39Ilf-2KPH32Gcn3oSov-13" value="" style="html=1;points=[[0,0,0,0,5],[0,1,0,0,-5],[1,0,0,0,5],[1,1,0,0,-5]];perimeter=orthogonalPerimeter;outlineConnect=0;targetShapes=umlLifeline;portConstraint=eastwest;newEdgeStyle={&quot;curved&quot;:0,&quot;rounded&quot;:0};" vertex="1" parent="39Ilf-2KPH32Gcn3oSov-2">
          <mxGeometry x="45" y="320" width="10" height="80" as="geometry" />
        </mxCell>
        <mxCell id="39Ilf-2KPH32Gcn3oSov-5" value="acceder(filtro: String)" style="html=1;verticalAlign=bottom;endArrow=block;curved=0;rounded=0;" edge="1" parent="1">
          <mxGeometry width="80" relative="1" as="geometry">
            <mxPoint x="175" y="140" as="sourcePoint" />
            <mxPoint x="479.5" y="140" as="targetPoint" />
          </mxGeometry>
        </mxCell>
        <mxCell id="39Ilf-2KPH32Gcn3oSov-6" value="listadoCoches" style="html=1;verticalAlign=bottom;endArrow=open;dashed=1;endSize=8;curved=0;rounded=0;" edge="1" parent="1" target="39Ilf-2KPH32Gcn3oSov-3">
          <mxGeometry relative="1" as="geometry">
            <mxPoint x="475" y="180" as="sourcePoint" />
            <mxPoint x="169.5" y="180" as="targetPoint" />
          </mxGeometry>
        </mxCell>
        <mxCell id="39Ilf-2KPH32Gcn3oSov-10" value="seleccionarCoche(idCoche: int)" style="html=1;verticalAlign=bottom;endArrow=block;curved=0;rounded=0;" edge="1" parent="1">
          <mxGeometry width="80" relative="1" as="geometry">
            <mxPoint x="175" y="251" as="sourcePoint" />
            <mxPoint x="479.5" y="251" as="targetPoint" />
          </mxGeometry>
        </mxCell>
        <mxCell id="39Ilf-2KPH32Gcn3oSov-11" value="detallesCoche" style="html=1;verticalAlign=bottom;endArrow=open;dashed=1;endSize=8;curved=0;rounded=0;" edge="1" parent="1">
          <mxGeometry relative="1" as="geometry">
            <mxPoint x="475" y="291" as="sourcePoint" />
            <mxPoint x="175" y="291" as="targetPoint" />
          </mxGeometry>
        </mxCell>
        <mxCell id="39Ilf-2KPH32Gcn3oSov-14" value="getCocheMediante(idCoche: int)" style="html=1;verticalAlign=bottom;endArrow=block;curved=0;rounded=0;" edge="1" parent="1">
          <mxGeometry width="80" relative="1" as="geometry">
            <mxPoint x="175" y="381" as="sourcePoint" />
            <mxPoint x="479.5" y="381" as="targetPoint" />
          </mxGeometry>
        </mxCell>
        <mxCell id="39Ilf-2KPH32Gcn3oSov-15" value="resultado" style="html=1;verticalAlign=bottom;endArrow=open;dashed=1;endSize=8;curved=0;rounded=0;" edge="1" parent="1">
          <mxGeometry relative="1" as="geometry">
            <mxPoint x="475" y="421" as="sourcePoint" />
            <mxPoint x="175" y="421" as="targetPoint" />
          </mxGeometry>
        </mxCell>
        <mxCell id="39Ilf-2KPH32Gcn3oSov-20" value="" style="html=1;points=[[0,0,0,0,5],[0,1,0,0,-5],[1,0,0,0,5],[1,1,0,0,-5]];perimeter=orthogonalPerimeter;outlineConnect=0;targetShapes=umlLifeline;portConstraint=eastwest;newEdgeStyle={&quot;curved&quot;:0,&quot;rounded&quot;:0};" vertex="1" parent="1">
          <mxGeometry x="475" y="470" width="10" height="80" as="geometry" />
        </mxCell>
        <mxCell id="39Ilf-2KPH32Gcn3oSov-21" value="confirmar(idCoche: int)" style="html=1;verticalAlign=bottom;endArrow=block;curved=0;rounded=0;" edge="1" parent="1">
          <mxGeometry width="80" relative="1" as="geometry">
            <mxPoint x="175" y="491" as="sourcePoint" />
            <mxPoint x="479.5" y="491" as="targetPoint" />
          </mxGeometry>
        </mxCell>
        <mxCell id="39Ilf-2KPH32Gcn3oSov-22" value="reservaCoche" style="html=1;verticalAlign=bottom;endArrow=open;dashed=1;endSize=8;curved=0;rounded=0;" edge="1" parent="1">
          <mxGeometry relative="1" as="geometry">
            <mxPoint x="475" y="531" as="sourcePoint" />
            <mxPoint x="175" y="531" as="targetPoint" />
          </mxGeometry>
        </mxCell>
        <mxCell id="39Ilf-2KPH32Gcn3oSov-24" value="loop[1, resultado=false]" style="shape=umlFrame;whiteSpace=wrap;html=1;pointerEvents=0;width=110;height=30;" vertex="1" parent="1">
          <mxGeometry x="20" y="210" width="500" height="360" as="geometry" />
        </mxCell>
        <mxCell id="39Ilf-2KPH32Gcn3oSov-25" value="opt" style="shape=umlFrame;whiteSpace=wrap;html=1;pointerEvents=0;" vertex="1" parent="1">
          <mxGeometry x="30" y="460" width="470" height="100" as="geometry" />
        </mxCell>
        <mxCell id="39Ilf-2KPH32Gcn3oSov-26" value="[resultado=true]" style="text;html=1;align=center;verticalAlign=middle;resizable=0;points=[];autosize=1;strokeColor=none;fillColor=none;" vertex="1" parent="1">
          <mxGeometry x="30" y="490" width="110" height="30" as="geometry" />
        </mxCell>
        <mxCell id="39Ilf-2KPH32Gcn3oSov-27" value="Text" style="text;html=1;align=center;verticalAlign=middle;resizable=0;points=[];autosize=1;strokeColor=none;fillColor=none;" vertex="1" parent="1">
          <mxGeometry x="145" y="88" width="50" height="30" as="geometry" />
        </mxCell>
      </root>
    </mxGraphModel>
  </diagram>
</mxfile>
